PathFileType	4	(X/Y/Z)	C:\MyCloud\GitHub\OpenSimScripting\Matlab\Data\Gait2354_Simbody\Static_Marker.trc	
DataRate	CameraRate	NumFrames	NumMarkers	Units	OrigDataRate	OrigDataStartFrame	OrigNumFrames
100	100	4	33	mm	100	26	100
Frame#	Time	C7			CLAV			STRN			LSHO			RSHO			LASIS			RLSIS			LPSIS			RPSIS			LGTF			LLCF			LMCF			LAF			RGTF			RLCF			RMCF			RAF			RFH			RANK			RMANK			RATT			LFH			LANK			LMANK			LATT			LHEE			L5MT			LTOE			L1MT			RHEE			R5MT			RTOE			R1MT			
		X1	Y1	Z1	X2	Y2	Z2	X3	Y3	Z3	X4	Y4	Z4	X5	Y5	Z5	X6	Y6	Z6	X7	Y7	Z7	X8	Y8	Z8	X9	Y9	Z9	X10	Y10	Z10	X11	Y11	Z11	X12	Y12	Z12	X13	Y13	Z13	X14	Y14	Z14	X15	Y15	Z15	X16	Y16	Z16	X17	Y17	Z17	X18	Y18	Z18	X19	Y19	Z19	X20	Y20	Z20	X21	Y21	Z21	X22	Y22	Z22	X23	Y23	Z23	X24	Y24	Z24	X25	Y25	Z25	X26	Y26	Z26	X27	Y27	Z27	X28	Y28	Z28	X29	Y29	Z29	X30	Y30	Z30	X31	Y31	Z31	X32	Y32	Z32	X33	Y33	Z33	

26	0.26000	370.83844	1586.97131	-41.92670	527.96149	1497.62610	-27.68995	555.95709	1436.82397	-35.30177	429.53293	1561.48853	-146.42128	417.85245	1560.65662	73.43993	504.85065	990.22266	-181.22864	503.33014	997.37262	115.31646	299.22574	1023.59015	-74.79111	304.93390	1024.35107	-9.05800	391.41660	881.33099	-214.30939	459.77585	517.76508	-219.91740	448.63715	516.07587	-92.08548	532.13068	799.01294	-201.43846	437.95407	879.54193	148.94728	478.20105	515.03448	148.36040	443.06644	496.89899	22.73023	540.21252	618.82410	96.99958	451.83255	455.31177	169.40050	386.42871	48.37702	143.97488	403.17554	75.09068	47.79256	496.51538	425.00146	118.35113	431.92221	471.52432	-233.57669	384.16098	54.26802	-200.85539	402.46625	78.58312	-106.39516	479.18481	428.42880	-192.36409	336.12296	67.11163	-153.19438	502.25085	9.40359	-229.83505	589.20825	30.54281	-145.34853	531.08594	22.69325	-106.13966	332.72742	72.07775	101.52103	496.03214	19.15343	174.15799	583.33057	27.71269	100.62144	527.09619	22.56123	54.80606	
27	0.27000	370.87473	1587.01208	-41.89682	527.94971	1497.66309	-27.68573	555.96381	1436.87622	-35.27680	429.66821	1561.55298	-146.34819	417.90842	1560.71399	73.47625	504.93121	990.20856	-181.20816	503.31390	997.40961	115.35294	299.25363	1023.63373	-74.85371	304.95239	1024.42688	-9.11247	391.55594	881.40686	-214.36331	459.79251	517.78082	-219.92169	448.57941	516.13489	-92.06851	532.16730	799.03076	-201.37381	437.95694	879.58313	148.94997	478.21512	515.07080	148.36771	443.13184	496.93472	22.71319	540.20770	618.86206	96.98729	451.81995	455.34641	169.43576	386.43906	48.45907	144.00681	403.17514	75.17056	47.77892	496.52686	425.11774	118.36030	431.93488	471.53421	-233.58374	384.20657	54.26263	-200.86407	402.49347	78.70332	-106.40447	479.19669	428.45334	-192.36891	336.13004	67.12756	-153.23276	502.17569	9.45876	-229.82274	589.19989	30.58729	-145.32803	531.05322	22.75804	-106.13287	332.74152	72.10444	101.47468	496.00439	19.30754	174.22845	583.33527	27.75429	100.61730	527.08038	22.73268	54.85773	
28	0.28000	370.88434	1587.01599	-41.95863	527.96454	1497.62610	-27.65089	555.98895	1436.89856	-35.22309	429.64999	1561.64612	-146.35869	417.89716	1560.71143	73.47515	505.01730	990.26447	-181.19902	503.28656	997.41785	115.35980	299.24942	1023.69379	-74.95158	304.93857	1024.40857	-9.18464	391.57230	881.37604	-214.42773	459.79468	517.80847	-219.93248	448.62570	516.22510	-92.07696	532.20105	799.02698	-201.31007	437.93927	879.61816	148.99373	478.21512	515.06488	148.37485	443.11838	496.96033	22.73425	540.19244	618.86017	97.02520	451.84598	455.36850	169.40457	386.42001	48.46664	143.97545	403.18182	75.26528	47.69184	496.51688	425.05048	118.35970	431.94244	471.59189	-233.60374	384.12964	54.42454	-200.93573	402.44754	78.74599	-106.42909	479.18420	428.46198	-192.31972	336.13730	67.14478	-153.27240	502.11273	9.50519	-229.82008	589.18225	30.57251	-145.36171	531.04425	22.73926	-106.11731	332.73807	72.11658	101.45736	496.00632	19.30662	174.22067	583.33301	27.80002	100.64168	527.07196	22.71433	54.89772	
29	0.29000	370.90671	1586.98621	-41.91611	528.00616	1497.64233	-27.63762	556.02966	1436.88904	-35.18571	429.66678	1561.58215	-146.34491	417.88257	1560.67517	73.46514	505.06943	990.26611	-181.13635	503.25342	997.40649	115.36269	299.29645	1023.60468	-74.90660	304.96725	1024.37158	-9.20408	391.63815	881.38580	-214.41698	459.86676	517.80658	-219.93517	448.58920	516.16437	-92.08852	532.25549	799.04327	-201.23245	437.90408	879.59271	148.94751	478.21497	515.08386	148.34401	443.09467	496.91119	22.68849	540.22302	618.87244	97.02245	451.85034	455.38660	169.37990	386.41135	48.44452	143.97163	403.14786	75.18591	47.74635	496.53903	425.05560	118.35921	432.25778	471.81696	-233.44922	384.16348	54.33575	-200.90050	402.45465	78.65305	-106.44887	479.27121	428.45499	-192.35283	336.16086	67.13383	-153.23546	502.11252	9.53402	-229.87653	589.19702	30.55173	-145.36433	531.04950	22.81231	-106.10316	332.72864	72.11867	101.45854	496.00146	19.23330	174.17166	583.32507	27.74496	100.62636	527.06152	22.73213	54.86808	
